<svg width="125" xmlns="http://www.w3.org/2000/svg" height="118" id="screenshot-5f97f291-8dcf-809d-8008-864491d50f0e" viewBox="-10 0 125 118" xmlns:xlink="http://www.w3.org/1999/xlink" fill="none" version="1.1"><g id="shape-5f97f291-8dcf-809d-8008-864491d50f0e" rx="0" ry="0"><g id="shape-5f97f291-8dcf-809d-8008-864377a774c7" height="512" width="512" rx="0" ry="0" style="fill: rgb(0, 0, 0);"><defs><clipPath id="render-2-d" class="svg-def" transform="matrix(1.000000, 0.000000, 0.000000, 1.000000, 0.000000, 0.000000)"><rect width="100" height="100" rx="0" ry="0"/></clipPath><g id="render-2-f"><ellipse cx="50" cy="92.8" rx="26" ry="3.2" fill="#44403c" opacity=".13"/><path d="M30 92c-5-9-7-20-5-32 2-14 8-27 19-32q6-2.7 12 0c11 5 17 18 19 32 2 12 0 23-5 32-8 1.5-32 1.5-40 0" fill="#86a5c3"/><g clip-path="url(#render-2-a)"><path d="M30 92c-5-9-7-20-5-32 2-14 8-27 19-32q6-2.7 12 0c11 5 17 18 19 32 2 12 0 23-5 32-8 1.5-32 1.5-40 0m2.8 3.2c-5-9-7-20-5-32 2-14 8-27 19-32q6-2.7 12 0c11 5 17 18 19 32 2 12 0 23-5 32-8 1.5-32 1.5-40 0" fill="#fff" opacity=".2" fill-rule="evenodd"/><path d="M30 92c-5-9-7-20-5-32 2-14 8-27 19-32q6-2.7 12 0c11 5 17 18 19 32 2 12 0 23-5 32-8 1.5-32 1.5-40 0m-2.8-3.2c-5-9-7-20-5-32 2-14 8-27 19-32q6-2.7 12 0c11 5 17 18 19 32 2 12 0 23-5 32-8 1.5-32 1.5-40 0" fill="#44403c" opacity=".12" fill-rule="evenodd"/></g><use transform="translate(29 39)"/><use transform="translate(37 58)"/></g><radialGradient id="render-2-e"><stop offset="0" stop-color="#e2ecf4"/><stop offset="1" stop-color="#e3efe9"/></radialGradient><clipPath id="render-2-a" class="svg-def" transform="matrix(1.000000, 0.000000, 0.000000, 1.000000, 0.000000, 0.000000)"><path d="M30 92c-5-9-7-20-5-32 2-14 8-27 19-32q6-2.7 12 0c11 5 17 18 19 32 2 12 0 23-5 32-8 1.5-32 1.5-40 0"/></clipPath><g id="render-2-b"><circle cx="10.5" cy="11" r="7" fill="#44403c" opacity=".15"/><circle cx="10" cy="10" r="7" fill="#fff"/><g class="dbcl-ep"><circle cx="10" cy="12.3" r="2.9" fill="#44403c"/><circle cx="9" cy="11.1" r=".7" fill="#fff" opacity=".7"/></g><circle cx="32.5" cy="11" r="7" fill="#44403c" opacity=".15"/><circle cx="32" cy="10" r="7" fill="#fff"/><g class="dbcl-ep"><circle cx="32" cy="12.3" r="2.9" fill="#44403c"/><circle cx="31" cy="11.1" r=".7" fill="#fff" opacity=".7"/></g></g><path d="M7.5 7.2C11 9 16 8.6 18.5 5.4" stroke="#44403c" stroke-width="2.5" stroke-linecap="round" id="render-2-c"/></defs><g id="shape-5f97f291-8dcf-809d-8008-864377a86a58" style="display: none;"><g class="fills" id="fills-5f97f291-8dcf-809d-8008-864377a86a58"><rect width="100" height="100" x="5.684341886080802e-14" transform="matrix(1.000000, 0.000000, 0.000000, 1.000000, 0.000000, 0.000000)" style="fill: none;" ry="0" fill="none" rx="0" y="0"/></g></g><g id="shape-5f97f291-8dcf-809d-8008-864377a86a59"><defs fill="none" style="fill: rgb(0, 0, 0);"><g id="shape-5f97f291-8dcf-809d-8008-864377a86a5a" rx="0" ry="0" style="fill: rgb(0, 0, 0);"><g id="shape-5f97f291-8dcf-809d-8008-864377a8ee95" class="dbcl-ep" rx="0" ry="0" style="fill: rgb(0, 0, 0);"><g id="shape-5f97f291-8dcf-809d-8008-864377a8ee96"><g class="fills" id="fills-5f97f291-8dcf-809d-8008-864377a8ee96"><ellipse cx="32.000000000000085" cy="12.299999999999983" rx="2.9000000000000057" ry="2.9000000000000057" transform="matrix(1.000000, 0.000000, 0.000000, 1.000000, 0.000000, 0.000000)" style="fill: rgb(68, 64, 60);"/></g></g><g id="shape-5f97f291-8dcf-809d-8008-864377a8ee97" style="opacity: 0.7;"><g class="fills" id="fills-5f97f291-8dcf-809d-8008-864377a8ee97"><ellipse cx="31.000000000000057" cy="11.099999999999966" rx="0.6999999999999886" ry="0.6999999999999886" transform="matrix(1.000000, 0.000000, 0.000000, 1.000000, 0.000000, 0.000000)" style="fill: rgb(255, 255, 255);"/></g></g></g><g id="shape-5f97f291-8dcf-809d-8008-864377a89b4c" class="dbcl-ep" rx="0" ry="0" style="fill: rgb(0, 0, 0);"><g id="shape-5f97f291-8dcf-809d-8008-864377a89b4d"><g class="fills" id="fills-5f97f291-8dcf-809d-8008-864377a89b4d"><ellipse cx="10.000000000000085" cy="12.299999999999983" rx="2.9000000000000057" ry="2.9000000000000057" transform="matrix(1.000000, 0.000000, 0.000000, 1.000000, 0.000000, 0.000000)" style="fill: rgb(68, 64, 60);"/></g></g><g id="shape-5f97f291-8dcf-809d-8008-864377a89b4e" style="opacity: 0.7;"><g class="fills" id="fills-5f97f291-8dcf-809d-8008-864377a89b4e"><ellipse cx="9.000000000000057" cy="11.099999999999966" rx="0.6999999999999886" ry="0.6999999999999886" transform="matrix(1.000000, 0.000000, 0.000000, 1.000000, 0.000000, 0.000000)" style="fill: rgb(255, 255, 255);"/></g></g></g><g id="shape-5f97f291-8dcf-809d-8008-864377a89b4f" style="opacity: 0.15;"><g class="fills" id="fills-5f97f291-8dcf-809d-8008-864377a89b4f"><ellipse cx="32.50000000000006" cy="11" rx="7" ry="7" transform="matrix(1.000000, 0.000000, 0.000000, 1.000000, 0.000000, 0.000000)" style="fill: rgb(68, 64, 60);"/></g></g><g id="shape-5f97f291-8dcf-809d-8008-864377a8ee94"><g class="fills" id="fills-5f97f291-8dcf-809d-8008-864377a8ee94"><ellipse cx="32.00000000000006" cy="10" rx="7" ry="7" transform="matrix(1.000000, 0.000000, 0.000000, 1.000000, 0.000000, 0.000000)" style="fill: rgb(255, 255, 255);"/></g></g><g id="shape-5f97f291-8dcf-809d-8008-864377a86a5b" style="opacity: 0.15;"><g class="fills" id="fills-5f97f291-8dcf-809d-8008-864377a86a5b"><ellipse cx="10.500000000000057" cy="11" rx="7" ry="7" transform="matrix(1.000000, 0.000000, 0.000000, 1.000000, 0.000000, 0.000000)" style="fill: rgb(68, 64, 60);"/></g></g><g id="shape-5f97f291-8dcf-809d-8008-864377a86a5c"><g class="fills" id="fills-5f97f291-8dcf-809d-8008-864377a86a5c"><ellipse cx="10.000000000000057" cy="10" rx="7" ry="7" transform="matrix(1.000000, 0.000000, 0.000000, 1.000000, 0.000000, 0.000000)" style="fill: rgb(255, 255, 255);"/></g></g></g><g id="shape-5f97f291-8dcf-809d-8008-864377a90b43" rx="0" ry="0" style="fill: rgb(0, 0, 0);"><g id="shape-5f97f291-8dcf-809d-8008-864377a9488d" style="opacity: 0.13;"><g class="fills" id="fills-5f97f291-8dcf-809d-8008-864377a9488d"><ellipse cx="50.00000000000006" cy="92.80000000000001" rx="26" ry="3.1999999999999886" transform="matrix(1.000000, 0.000000, 0.000000, 1.000000, 0.000000, 0.000000)" style="fill: rgb(68, 64, 60);"/></g></g><g id="shape-5f97f291-8dcf-809d-8008-864377a9488e"><g class="fills" id="fills-5f97f291-8dcf-809d-8008-864377a9488e"><path d="M30,92C25,83,23,72,25,60C27,46,33,33,44,28C48,26.20001220703125,52,26.20001220703125,56,28C67,33,73,46,75,60C77,72,75,83,70,92C62,93.5,38,93.5,30,92" style="fill: rgb(134, 165, 195);"/></g></g><g id="shape-5f97f291-8dcf-809d-8008-864377a98693" clip-path="url(#render-19-a)" rx="0" ry="0" style="fill: rgb(0, 0, 0);"><defs><clipPath id="render-19-a" class="svg-def" transform="matrix(1.000000, 0.000000, 0.000000, 1.000000, 0.000000, 0.000000)"><path d="M30 92c-5-9-7-20-5-32 2-14 8-27 19-32q6-2.7 12 0c11 5 17 18 19 32 2 12 0 23-5 32-8 1.5-32 1.5-40 0"/></clipPath></defs><g id="shape-5f97f291-8dcf-809d-8008-864377a98694" style="opacity: 0.2;"><g class="fills" id="fills-5f97f291-8dcf-809d-8008-864377a98694"><path d="M30,92C25,83,23,72,25,60C27,46,33,33,44,28C48,26.20001220703125,52,26.20001220703125,56,28C67,33,73,46,75,60C77,72,75,83,70,92C62,93.5,38,93.5,30,92M32.79998779296875,95.20001220703125C27.79998779296875,86.20001220703125,25.79998779296875,75.20001220703125,27.79998779296875,63.20001220703125C29.79998779296875,49.20001220703125,35.79998779296875,36.20001220703125,46.79998779296875,31.20001220703125C50.79998779296875,29.399993896484375,54.79998779296875,29.399993896484375,58.79998779296875,31.20001220703125C69.79998779296875,36.20001220703125,75.79998779296875,49.20001220703125,77.79998779296875,63.20001220703125C79.79998779296875,75.20001220703125,77.79998779296875,86.20001220703125,72.79998779296875,95.20001220703125C64.79998779296875,96.70001220703125,40.79998779296875,96.70001220703125,32.79998779296875,95.20001220703125" fill-rule="evenodd" style="fill: rgb(255, 255, 255);"/></g></g><g id="shape-5f97f291-8dcf-809d-8008-864377a9e94a" style="opacity: 0.12;"><g class="fills" id="fills-5f97f291-8dcf-809d-8008-864377a9e94a"><path d="M30,92C25,83,23,72,25,60C27,46,33,33,44,28C48,26.20001220703125,52,26.20001220703125,56,28C67,33,73,46,75,60C77,72,75,83,70,92C62,93.5,38,93.5,30,92M27.20001220703125,88.79998779296875C22.20001220703125,79.79998779296875,20.20001220703125,68.79998779296875,22.20001220703125,56.79998779296875C24.20001220703125,42.79998779296875,30.20001220703125,29.79998779296875,41.20001220703125,24.79998779296875C45.20001220703125,23,49.20001220703125,23,53.20001220703125,24.79998779296875C64.20001220703125,29.79998779296875,70.20001220703125,42.79998779296875,72.20001220703125,56.79998779296875C74.20001220703125,68.79998779296875,72.20001220703125,79.79998779296875,67.20001220703125,88.79998779296875C59.20001220703125,90.29998779296875,35.20001220703125,90.29998779296875,27.20001220703125,88.79998779296875" fill-rule="evenodd" style="fill: rgb(68, 64, 60);"/></g></g></g><g id="shape-5f97f291-8dcf-809d-8008-864377aa3c22" rx="0" ry="0" style="fill: rgb(0, 0, 0);"><g id="shape-5f97f291-8dcf-809d-8008-864377aa3c23" rx="0" ry="0" style="fill: rgb(0, 0, 0);"><g id="shape-5f97f291-8dcf-809d-8008-864377aa3c24" style="opacity: 0.15;"><g class="fills" id="fills-5f97f291-8dcf-809d-8008-864377aa3c24"><ellipse cx="39.50000000000006" cy="50" rx="7" ry="7" transform="matrix(1.000000, 0.000000, 0.000000, 1.000000, 0.000000, 0.000000)" style="fill: rgb(68, 64, 60);"/></g></g><g id="shape-5f97f291-8dcf-809d-8008-864377aa3c25"><g class="fills" id="fills-5f97f291-8dcf-809d-8008-864377aa3c25"><ellipse cx="39.00000000000006" cy="49" rx="7" ry="7" transform="matrix(1.000000, 0.000000, 0.000000, 1.000000, 0.000000, 0.000000)" style="fill: rgb(255, 255, 255);"/></g></g><g id="shape-5f97f291-8dcf-809d-8008-864377aa3c26" class="dbcl-ep" rx="0" ry="0" style="fill: rgb(0, 0, 0);"><g id="shape-5f97f291-8dcf-809d-8008-864377aa4b97"><g class="fills" id="fills-5f97f291-8dcf-809d-8008-864377aa4b97"><ellipse cx="39.000000000000085" cy="51.29999999999998" rx="2.9000000000000057" ry="2.9000000000000057" transform="matrix(1.000000, 0.000000, 0.000000, 1.000000, 0.000000, 0.000000)" style="fill: rgb(68, 64, 60);"/></g></g><g id="shape-5f97f291-8dcf-809d-8008-864377aa4b98" style="opacity: 0.7;"><g class="fills" id="fills-5f97f291-8dcf-809d-8008-864377aa4b98"><ellipse cx="38.00000000000006" cy="50.099999999999966" rx="0.6999999999999886" ry="0.6999999999999886" transform="matrix(1.000000, 0.000000, 0.000000, 1.000000, 0.000000, 0.000000)" style="fill: rgb(255, 255, 255);"/></g></g></g><g id="shape-5f97f291-8dcf-809d-8008-864377aa4b9a"><g class="fills" id="fills-5f97f291-8dcf-809d-8008-864377aa4b9a"><ellipse cx="61.00000000000006" cy="49" rx="7" ry="7" transform="matrix(1.000000, 0.000000, 0.000000, 1.000000, 0.000000, 0.000000)" style="fill: rgb(255, 255, 255);"/></g></g><g id="shape-5f97f291-8dcf-809d-8008-864377aa4b9b" class="dbcl-ep" rx="0" ry="0" style="fill: rgb(0, 0, 0);"><g id="shape-5f97f291-8dcf-809d-8008-864377aa4b9c"><g class="fills" id="fills-5f97f291-8dcf-809d-8008-864377aa4b9c"><ellipse cx="61.000000000000085" cy="51.29999999999998" rx="2.9000000000000057" ry="2.9000000000000057" transform="matrix(1.000000, 0.000000, 0.000000, 1.000000, 0.000000, 0.000000)" style="fill: rgb(68, 64, 60);"/></g></g><g id="shape-5f97f291-8dcf-809d-8008-864377aa4b9d" style="opacity: 0.7;"><g class="fills" id="fills-5f97f291-8dcf-809d-8008-864377aa4b9d"><ellipse cx="60.00000000000006" cy="50.099999999999966" rx="0.6999999999999886" ry="0.6999999999999886" transform="matrix(1.000000, 0.000000, 0.000000, 1.000000, 0.000000, 0.000000)" style="fill: rgb(255, 255, 255);"/></g></g></g><g id="shape-5f97f291-8dcf-809d-8008-864377aa4b99" style="opacity: 0.15;"><g class="fills" id="fills-5f97f291-8dcf-809d-8008-864377aa4b99"><ellipse cx="61.50000000000006" cy="50" rx="7" ry="7" transform="matrix(1.000000, 0.000000, 0.000000, 1.000000, 0.000000, 0.000000)" style="fill: rgb(68, 64, 60);"/></g></g></g></g><g id="shape-5f97f291-8dcf-809d-8008-864377aaba49" rx="0" ry="0" style="fill: rgb(0, 0, 0);"><g id="shape-5f97f291-8dcf-809d-8008-864377aaba4a"><g class="fills" id="fills-5f97f291-8dcf-809d-8008-864377aaba4a"><path d="M44.5,65.20001220703125C48,67,53,66.60000610351562,55.5,63.399993896484375" stroke-linecap="round"/></g><g stroke-linecap="round" id="strokes-7b59be06-2e99-80f6-8008-86497e6ff597-5f97f291-8dcf-809d-8008-864377aaba4a" class="strokes"><g class="stroke-shape"><path d="M44.5,65.20001220703125C48,67,53,66.60000610351562,55.5,63.399993896484375" style="fill: none; stroke-width: 2.5; stroke: rgb(68, 64, 60); stroke-opacity: 1; stroke-linecap: round;"/></g></g></g></g></g><g id="shape-5f97f291-8dcf-809d-8008-864377a90b42"><g class="fills" id="fills-5f97f291-8dcf-809d-8008-864377a90b42"><path d="M7.5,7.20001220703125C11,9,16,8.600006103515625,18.5,5.399993896484375" stroke-linecap="round"/></g><g stroke-linecap="round" id="strokes-7b59be06-2e99-80f6-8008-86497e70589d-5f97f291-8dcf-809d-8008-864377a90b42" class="strokes"><g class="stroke-shape"><path d="M7.5,7.20001220703125C11,9,16,8.600006103515625,18.5,5.399993896484375" style="fill: none; stroke-width: 2.5; stroke: rgb(68, 64, 60); stroke-opacity: 1; stroke-linecap: round;"/></g></g></g></defs></g><g id="shape-5f97f291-8dcf-809d-8008-864377aaba4b" clip-path="url(#render-37-d)" rx="0" ry="0" style="fill: rgb(0, 0, 0);"><defs><clipPath id="render-37-d" class="svg-def" transform="matrix(1.000000, 0.000000, 0.000000, 1.000000, 0.000000, 0.000000)"><rect width="100" height="100" rx="0" ry="0"/></clipPath></defs><g id="shape-5f97f291-8dcf-809d-8008-864377aaba4c"><defs><radialGradient id="render-38-e"><stop offset="0" stop-color="#e2ecf4"/><stop offset="1" stop-color="#e3efe9"/></radialGradient></defs><g class="fills" id="fills-5f97f291-8dcf-809d-8008-864377aaba4c"><rect width="100" height="100" x="5.684341886080802e-14" transform="matrix(1.000000, 0.000000, 0.000000, 1.000000, 0.000000, 0.000000)" style="fill: url(&quot;#render-38-e&quot;);" ry="0" fill="url(#render-38-e)" rx="0" y="0"/></g></g><g id="shape-5f97f291-8dcf-809d-8008-864377abec5a"><use fill="none" transform="matrix(1.000000, 0.000000, 0.000000, 1.000000, 0.000000, 0.000000) " style="fill: rgb(0, 0, 0);"/></g><g id="shape-5f97f291-8dcf-809d-8008-864377aad638" class="dbcl-c" rx="0" ry="0" style="fill: rgb(0, 0, 0);"><g id="shape-5f97f291-8dcf-809d-8008-864377aad639" class="dbcl-c" rx="0" ry="0" style="fill: rgb(0, 0, 0);"><g id="shape-5f97f291-8dcf-809d-8008-864377aad63a" style="opacity: 0.13;"><g class="fills" id="fills-5f97f291-8dcf-809d-8008-864377aad63a"><ellipse cx="33.00000000000006" cy="92.80000000000001" rx="26" ry="3.1999999999999886" transform="matrix(1.000000, 0.000000, 0.000000, 1.000000, 0.000000, 0.000000)" style="fill: rgb(68, 64, 60);"/></g></g><g id="shape-5f97f291-8dcf-809d-8008-864377ab0655"><g class="fills" id="fills-5f97f291-8dcf-809d-8008-864377ab0655"><path d="M13,92C8,83,6,72,8,60C10,46,16,33,27,28C31,26.20001220703125,35,26.20001220703125,39,28C50,33,56,46,58,60C60,72,58,83,53,92C45,93.5,21,93.5,13,92" style="fill: rgb(134, 165, 195);"/></g></g><g id="shape-5f97f291-8dcf-809d-8008-864377ab0656" clip-path="url(#render-44-a)" rx="0" ry="0" style="fill: rgb(0, 0, 0);"><defs><clipPath id="render-44-a" class="svg-def" transform="matrix(1.000000, 0.000000, 0.000000, 1.000000, -17.000000, 0.000000)"><path d="M30 92c-5-9-7-20-5-32 2-14 8-27 19-32q6-2.7 12 0c11 5 17 18 19 32 2 12 0 23-5 32-8 1.5-32 1.5-40 0"/></clipPath></defs><g id="shape-5f97f291-8dcf-809d-8008-864377ab0657" style="opacity: 0.2;"><g class="fills" id="fills-5f97f291-8dcf-809d-8008-864377ab0657"><path d="M13,92C8,83,6,72,8,60C10,46,16,33,27,28C31,26.20001220703125,35,26.20001220703125,39,28C50,33,56,46,58,60C60,72,58,83,53,92C45,93.5,21,93.5,13,92M15.79998779296875,95.20001220703125C10.79998779296875,86.20001220703125,8.79998779296875,75.20001220703125,10.79998779296875,63.20001220703125C12.79998779296875,49.20001220703125,18.79998779296875,36.20001220703125,29.79998779296875,31.20001220703125C33.79998779296875,29.399993896484375,37.79998779296875,29.399993896484375,41.79998779296875,31.20001220703125C52.79998779296875,36.20001220703125,58.79998779296875,49.20001220703125,60.79998779296875,63.20001220703125C62.79998779296875,75.20001220703125,60.79998779296875,86.20001220703125,55.79998779296875,95.20001220703125C47.79998779296875,96.70001220703125,23.79998779296875,96.70001220703125,15.79998779296875,95.20001220703125" fill-rule="evenodd" style="fill: rgb(255, 255, 255);"/></g></g><g id="shape-5f97f291-8dcf-809d-8008-864377ab7c42" style="opacity: 0.12;"><g class="fills" id="fills-5f97f291-8dcf-809d-8008-864377ab7c42"><path d="M13,92C8,83,6,72,8,60C10,46,16,33,27,28C31,26.20001220703125,35,26.20001220703125,39,28C50,33,56,46,58,60C60,72,58,83,53,92C45,93.5,21,93.5,13,92M10.20001220703125,88.79998779296875C5.20001220703125,79.79998779296875,3.20001220703125,68.79998779296875,5.20001220703125,56.79998779296875C7.20001220703125,42.79998779296875,13.20001220703125,29.79998779296875,24.20001220703125,24.79998779296875C28.20001220703125,23,32.20001220703125,23,36.20001220703125,24.79998779296875C47.20001220703125,29.79998779296875,53.20001220703125,42.79998779296875,55.20001220703125,56.79998779296875C57.20001220703125,68.79998779296875,55.20001220703125,79.79998779296875,50.20001220703125,88.79998779296875C42.20001220703125,90.29998779296875,18.20001220703125,90.29998779296875,10.20001220703125,88.79998779296875" fill-rule="evenodd" style="fill: rgb(68, 64, 60);"/></g></g></g><g id="shape-5f97f291-8dcf-809d-8008-864377ab7c43" rx="0" ry="0" style="fill: rgb(0, 0, 0);"><g id="shape-5f97f291-8dcf-809d-8008-864377ab7c44" rx="0" ry="0" style="fill: rgb(0, 0, 0);"><g id="shape-5f97f291-8dcf-809d-8008-864377ab7c45" style="opacity: 0.15;"><g class="fills" id="fills-5f97f291-8dcf-809d-8008-864377ab7c45"><ellipse cx="22.500000000000057" cy="50" rx="7" ry="7" transform="matrix(1.000000, 0.000000, 0.000000, 1.000000, 0.000000, 0.000000)" style="fill: rgb(68, 64, 60);"/></g></g><g id="shape-5f97f291-8dcf-809d-8008-864377ab7c46"><g class="fills" id="fills-5f97f291-8dcf-809d-8008-864377ab7c46"><ellipse cx="22.000000000000057" cy="49" rx="7" ry="7" transform="matrix(1.000000, 0.000000, 0.000000, 1.000000, 0.000000, 0.000000)" style="fill: rgb(255, 255, 255);"/></g></g><g id="shape-5f97f291-8dcf-809d-8008-864377ab7c47" class="dbcl-ep" rx="0" ry="0" style="fill: rgb(0, 0, 0);"><g id="shape-5f97f291-8dcf-809d-8008-864377ab9914"><g class="fills" id="fills-5f97f291-8dcf-809d-8008-864377ab9914"><ellipse cx="22.000000000000085" cy="51.29999999999998" rx="2.9000000000000057" ry="2.9000000000000057" transform="matrix(1.000000, 0.000000, 0.000000, 1.000000, 0.000000, 0.000000)" style="fill: rgb(68, 64, 60);"/></g></g><g id="shape-5f97f291-8dcf-809d-8008-864377ab9915" style="opacity: 0.7;"><g class="fills" id="fills-5f97f291-8dcf-809d-8008-864377ab9915"><ellipse cx="21.000000000000057" cy="50.099999999999966" rx="0.6999999999999886" ry="0.6999999999999886" transform="matrix(1.000000, 0.000000, 0.000000, 1.000000, 0.000000, 0.000000)" style="fill: rgb(255, 255, 255);"/></g></g></g><g id="shape-5f97f291-8dcf-809d-8008-864377ab9916" style="opacity: 0.15;"><g class="fills" id="fills-5f97f291-8dcf-809d-8008-864377ab9916"><ellipse cx="44.50000000000006" cy="50" rx="7" ry="7" transform="matrix(1.000000, 0.000000, 0.000000, 1.000000, 0.000000, 0.000000)" style="fill: rgb(68, 64, 60);"/></g></g><g id="shape-5f97f291-8dcf-809d-8008-864377ab9917"><g class="fills" id="fills-5f97f291-8dcf-809d-8008-864377ab9917"><ellipse cx="44.00000000000006" cy="49" rx="7" ry="7" transform="matrix(1.000000, 0.000000, 0.000000, 1.000000, 0.000000, 0.000000)" style="fill: rgb(255, 255, 255);"/></g></g><g id="shape-5f97f291-8dcf-809d-8008-864377ab9918" class="dbcl-ep" rx="0" ry="0" style="fill: rgb(0, 0, 0);"><g id="shape-5f97f291-8dcf-809d-8008-864377ab9919"><g class="fills" id="fills-5f97f291-8dcf-809d-8008-864377ab9919"><ellipse cx="44.000000000000085" cy="51.29999999999998" rx="2.9000000000000057" ry="2.9000000000000057" transform="matrix(1.000000, 0.000000, 0.000000, 1.000000, 0.000000, 0.000000)" style="fill: rgb(68, 64, 60);"/></g></g><g id="shape-5f97f291-8dcf-809d-8008-864377ab991a" style="opacity: 0.7;"><g class="fills" id="fills-5f97f291-8dcf-809d-8008-864377ab991a"><ellipse cx="43.00000000000006" cy="50.099999999999966" rx="0.6999999999999886" ry="0.6999999999999886" transform="matrix(1.000000, 0.000000, 0.000000, 1.000000, 0.000000, 0.000000)" style="fill: rgb(255, 255, 255);"/></g></g></g></g></g><g id="shape-5f97f291-8dcf-809d-8008-864377ab991b" rx="0" ry="0" style="fill: rgb(0, 0, 0);"><g id="shape-5f97f291-8dcf-809d-8008-864377abec59"><g class="fills" id="fills-5f97f291-8dcf-809d-8008-864377abec59"><path d="M27.5,65.20001220703125C31,67,36,66.60000610351562,38.5,63.399993896484375" fill="none" stroke-linecap="round" style="fill: none;"/></g><g fill="none" stroke-linecap="round" id="strokes-7b59be06-2e99-80f6-8008-86497e74c554-5f97f291-8dcf-809d-8008-864377abec59" class="strokes"><g class="stroke-shape"><path d="M27.5,65.20001220703125C31,67,36,66.60000610351562,38.5,63.399993896484375" style="fill: none; stroke-width: 2.5; stroke: rgb(68, 64, 60); stroke-opacity: 1; stroke-linecap: round;"/></g></g></g></g></g></g></g></g><g id="shape-5f97f291-8dcf-809d-8008-86422e6d52a4" filter="url(#filter-render-61)" xml:space="preserve" rx="0" ry="0" style="fill: rgb(0, 0, 0);"><defs><linearGradient x1="10.753" y1="88.201" x2="10.505" y2="70.898" id="render-61-d" gradientUnits="userSpaceOnUse" class="svg-def" gradientTransform="matrix(1.000000, 0.000000, 0.000000, 1.000000, 0.000000, 0.000000)"><stop offset=".267" stop-color="#82AEC0"/><stop offset="1" stop-color="#82AEC0" stop-opacity="0"/></linearGradient><linearGradient x1="50.885" y1="88.201" x2="50.638" y2="70.898" id="render-61-a" gradientUnits="userSpaceOnUse" gradientTransform="matrix(1.000000, 0.000000, 0.000000, 1.000000, 0.000000, 0.000000) matrix(-1 0 0 1 168.1284 0)" class="svg-def"><stop offset=".267" stop-color="#82AEC0"/><stop offset="1" stop-color="#82AEC0" stop-opacity="0"/></linearGradient><linearGradient x1="98.211" y1="84.601" x2="55.4" y2="84.601" id="render-61-b" gradientUnits="userSpaceOnUse" gradientTransform="matrix(1.000000, 0.000000, 0.000000, 1.000000, 0.000000, 0.000000) matrix(-1 0 0 1 168.1284 0)" class="svg-def"><stop offset="0" stop-color="#2F7889"/><stop offset="1" stop-color="#82AEC0"/></linearGradient><linearGradient x1="57.979" y1="84.601" x2="15.263" y2="84.601" id="render-61-c" gradientUnits="userSpaceOnUse" class="svg-def" gradientTransform="matrix(1.000000, 0.000000, 0.000000, 1.000000, 0.000000, 0.000000)"><stop offset="0" stop-color="#2F7889"/><stop offset="1" stop-color="#82AEC0"/></linearGradient><filter id="filter-render-61" x="-0.5555555555555327" y="-0.5555555555555649" width="2.1111111111110654" height="2.2222222222222427" filterUnits="objectBoundingBox" color-interpolation-filters="sRGB"><feFlood flood-opacity="0" result="BackgroundImageFix"/><feColorMatrix in="SourceAlpha" type="matrix" values="0 0 0 0 0 0 0 0 0 0 0 0 0 0 0 0 0 0 127 0"/><feOffset dx="0" dy="1"/><feGaussianBlur stdDeviation="0"/><feColorMatrix type="matrix" values="0 0 0 0 0 0 0 0 0 0 0 0 0 0 0 0 0 0 0.1 0"/><feBlend mode="normal" in2="BackgroundImageFix" result="filter_5f97f291-8dcf-809d-8008-86479d8e5e50"/><feBlend mode="normal" in="SourceGraphic" in2="filter_5f97f291-8dcf-809d-8008-86479d8e5e50" result="shape"/></filter><filter id="filter-shadow-render-61" x="-0.5555555555555327" y="-0.5555555555555649" width="2.1111111111110654" height="2.2222222222222427" filterUnits="objectBoundingBox" color-interpolation-filters="sRGB"><feFlood flood-opacity="0" result="BackgroundImageFix"/><feColorMatrix in="SourceAlpha" type="matrix" values="0 0 0 0 0 0 0 0 0 0 0 0 0 0 0 0 0 0 127 0"/><feOffset dx="0" dy="1"/><feGaussianBlur stdDeviation="0"/><feColorMatrix type="matrix" values="0 0 0 0 0 0 0 0 0 0 0 0 0 0 0 0 0 0 0.1 0"/><feBlend mode="normal" in2="BackgroundImageFix" result="filter_5f97f291-8dcf-809d-8008-86479d8e5e50"/><feBlend mode="normal" in="SourceGraphic" in2="filter_5f97f291-8dcf-809d-8008-86479d8e5e50" result="shape"/></filter></defs><g id="shape-5f97f291-8dcf-809d-8008-86422e6de26d" style="display: none;"><g class="fills" id="fills-5f97f291-8dcf-809d-8008-86422e6de26d"><rect width="27.00000000000111" height="26.999999999999545" x="5.000000000000057" transform="matrix(1.000000, 0.000000, 0.000000, 1.000000, 0.000000, 0.000000)" style="fill: none;" ry="0" fill="none" rx="0" y="73.00000000000023"/></g></g><g id="shape-5f97f291-8dcf-809d-8008-86422e6e264c"><g class="fills" id="fills-5f97f291-8dcf-809d-8008-86422e6e264c"><path d="M19.816177368164062,94.26052856445312L30.057296752929688,95.23483276367188C31.02130126953125,95.32769775390625,31.267929077148438,94.78982543945312,31.2679443359375,94.334228515625L31.257522583007812,93.78155517578125L18.662582397460938,92.00552368164062C18.662353515625,92.63613891601562,19.175064086914062,94.26052856445312,19.816177368164062,94.26052856445312Z" style="fill: rgb(198, 40, 40);"/></g></g><g id="shape-5f97f291-8dcf-809d-8008-86422e6e5ba1"><g class="fills" id="fills-5f97f291-8dcf-809d-8008-86422e6e5ba1"><path d="M20.189529418945312,93.77944946289062L21.801223754882812,93.92071533203125L30.430709838867188,94.75384521484375C30.894668579101562,94.75399780273438,31.26800537109375,94.38482666015625,31.2681884765625,93.92913818359375L30.810256958007812,79.9525146484375C30.810302734375,79.49679565429688,30.4349365234375,79.12774658203125,29.972991943359375,79.12774658203125L20.18951416015625,78.2039794921875C19.548477172851562,78.20376586914062,19.02734375,78.71633911132812,19.02734375,79.34716796875L19.02734375,92.63629150390625C19.027297973632812,93.26687622070312,19.546234130859375,93.7794189453125,20.189529418945312,93.77944946289062Z" style="fill: rgb(244, 67, 54);"/></g></g><g id="shape-5f97f291-8dcf-809d-8008-86422e6e5ba2"><g class="fills" id="fills-5f97f291-8dcf-809d-8008-86422e6e5ba2"><path d="M17.183853149414062,94.26040649414062L6.942779541015625,95.23492431640625C5.978759765625,95.32781982421875,5.73199462890625,94.78988647460938,5.7319183349609375,94.33428955078125L5.742431640625,93.78158569335938L18.337570190429688,92.0032958984375C18.3375244140625,92.63629150390625,17.824951171875,94.260498046875,17.183853149414062,94.26040649414062Z" style="fill: rgb(198, 40, 40);"/></g></g><g id="shape-5f97f291-8dcf-809d-8008-86422e6eb6e8"><g class="fills" id="fills-5f97f291-8dcf-809d-8008-86422e6eb6e8"><path d="M16.810409545898438,93.77944946289062L15.211563110351562,93.92071533203125L6.56951904296875,94.75607299804688C6.10528564453125,94.756103515625,5.7319793701171875,94.386962890625,5.7319488525390625,93.93124389648438L6.18963623046875,79.95465087890625C6.1897735595703125,79.49899291992188,6.56524658203125,79.1298828125,7.02716064453125,79.12982177734375L16.81036376953125,78.20596313476562C17.451446533203125,78.20596313476562,17.972732543945312,78.71847534179688,17.972579956054688,79.34921264648438L17.97265625,92.63824462890625C17.972702026367188,93.26690673828125,17.453842163085938,93.7794189453125,16.810409545898438,93.77944946289062Z" style="fill: rgb(244, 67, 54);"/></g></g><g id="shape-5f97f291-8dcf-809d-8008-86422e6eb6e9"><g class="fills" id="fills-5f97f291-8dcf-809d-8008-86422e6eb6e9"><path d="M21.611328125,90.65127563476562L15.392913818359375,90.65121459960938L15.202987670898438,93.92706298828125L17.143707275390625,94.1085205078125C17.143707275390625,94.1085205078125,17.559234619140625,95.14617919921875,18.500045776367188,95.14633178710938C19.44061279296875,95.14627075195312,19.856338500976562,94.10861206054688,19.856338500976562,94.10861206054688L21.796981811523438,93.927001953125L21.611328125,90.65127563476562Z" style="fill: rgb(66, 66, 66);"/></g></g><g id="shape-5f97f291-8dcf-809d-8008-86422e6eb6ea"><g class="fills" id="fills-5f97f291-8dcf-809d-8008-86422e6eb6ea"><path d="M21.777923583984375,94.18441772460938L19.970230102539062,94.02825927734375" style="fill: none; stroke-miterlimit: 10;"/></g><g id="strokes-7b59be06-2e99-80f6-8008-86497e77bdf9-5f97f291-8dcf-809d-8008-86422e6eb6ea" class="strokes" style="fill: none; stroke-miterlimit: 10;"><g class="stroke-shape"><path d="M21.777923583984375,94.18441772460938L19.970230102539062,94.02825927734375" style="fill: none; stroke-width: 2.5; stroke: rgb(97, 97, 97); stroke-opacity: 1;"/></g></g></g><g id="shape-5f97f291-8dcf-809d-8008-86422e6f313d"><defs><linearGradient x1="57.979" y1="84.601" x2="15.263" y2="84.601" id="render-69-c" gradientUnits="userSpaceOnUse" gradientTransform="matrix(0.210938, 0.000000, 0.000000, 0.210937, 5.000000, 73.000000)"><stop offset="0" stop-color="#2F7889"/><stop offset="1" stop-color="#82AEC0"/></linearGradient></defs><g class="fills" id="fills-5f97f291-8dcf-809d-8008-86422e6f313d"><path d="M7.837066650390625,89.13461303710938L7.889892578125,92.38095092773438C7.889892578125,92.38095092773438,10.412689208984375,92.250244140625,14.4310302734375,91.55404663085938C17.059280395507812,91.09835815429688,18.5,92.5582275390625,18.5,92.5582275390625L18.476715087890625,89.13455200195312L7.837066650390625,89.13461303710938Z" style="fill: url(&quot;#render-69-c&quot;);"/></g></g><g id="shape-5f97f291-8dcf-809d-8008-86422e6f313e"><defs><linearGradient x1="10.753" y1="88.201" x2="10.505" y2="70.898" id="render-70-d" gradientUnits="userSpaceOnUse" gradientTransform="matrix(0.210938, 0.000000, 0.000000, 0.210937, 5.000000, 73.000000)"><stop offset=".267" stop-color="#82AEC0"/><stop offset="1" stop-color="#82AEC0" stop-opacity="0"/></linearGradient></defs><g class="fills" id="fills-5f97f291-8dcf-809d-8008-86422e6f313e"><path d="M7.8897552490234375,92.37872314453125L7.856048583984375,86.81210327148438L6.7001495361328125,86.81219482421875L6.6431121826171875,93.70770263671875C6.6431121826171875,93.70770263671875,7.5587310791015625,93.351318359375,7.8897552490234375,92.37872314453125Z" style="fill: url(&quot;#render-70-d&quot;);"/></g></g><g id="shape-5f97f291-8dcf-809d-8008-86422e6ef802"><g class="fills" id="fills-5f97f291-8dcf-809d-8008-86422e6ef802"><path d="M15.221969604492188,94.18450927734375L17.02972412109375,94.02825927734375" style="fill: none; stroke-miterlimit: 10;"/></g><g id="strokes-7b59be06-2e99-80f6-8008-86497e788745-5f97f291-8dcf-809d-8008-86422e6ef802" class="strokes" style="fill: none; stroke-miterlimit: 10;"><g class="stroke-shape"><path d="M15.221969604492188,94.18450927734375L17.02972412109375,94.02825927734375" style="fill: none; stroke-width: 2.5; stroke: rgb(97, 97, 97); stroke-opacity: 1;"/></g></g></g><g id="shape-5f97f291-8dcf-809d-8008-86422e6ef803"><g class="fills" id="fills-5f97f291-8dcf-809d-8008-86422e6ef803"><path d="M30.238601684570312,79.9228515625L29.394927978515625,78.7628173828125L18.4998779296875,91.14492797851562L7.6050262451171875,78.76278686523438L6.7613525390625,79.92291259765625L6.6431121826171875,93.70770263671875C6.6431121826171875,93.70770263671875,8.8834228515625,93.98828125,11.876510620117188,93.6844482421875C14.4837646484375,93.42074584960938,15.711380004882812,92.74588012695312,16.5826416015625,92.92083740234375C17.628753662109375,93.13177490234375,17.818756103515625,93.77529907226562,17.852386474609375,93.8848876953125C17.947341918945312,94.1885986328125,18.1351318359375,94.42486572265625,18.5,94.4249267578125C18.864898681640625,94.42489624023438,19.02734375,94.29824829101562,19.139144897460938,93.9228515625C19.17303466796875,93.8131103515625,19.37127685546875,93.1339111328125,20.417495727539062,92.923095703125C21.288406372070312,92.747802734375,22.516006469726562,93.42294311523438,25.123550415039062,93.68667602539062C28.116607666015625,93.99044799804688,30.35687255859375,93.70986938476562,30.35687255859375,93.70986938476562L30.238601684570312,79.9228515625Z" style="fill: rgb(148, 198, 214);"/></g></g><g id="shape-5f97f291-8dcf-809d-8008-86422e6ef804"><defs><linearGradient x1="50.885" y1="88.201" x2="50.638" y2="70.898" id="render-73-a" gradientUnits="userSpaceOnUse" gradientTransform="matrix(0.210938, 0.000000, 0.000000, 0.210937, 5.000000, 73.000000) matrix(-1 0 0 1 168.1284 0)"><stop offset=".267" stop-color="#82AEC0"/><stop offset="1" stop-color="#82AEC0" stop-opacity="0"/></linearGradient></defs><g class="fills" id="fills-5f97f291-8dcf-809d-8008-86422e6ef804"><path d="M29.110214233398438,92.37884521484375L29.1439208984375,86.81216430664062L30.297821044921875,86.81222534179688L30.3568115234375,93.70770263671875C30.3568115234375,93.70770263671875,29.439163208007812,93.35122680664062,29.110214233398438,92.37884521484375Z" style="fill: url(&quot;#render-73-a&quot;);"/></g></g><g id="shape-5f97f291-8dcf-809d-8008-86422e6f313c"><defs><linearGradient x1="98.211" y1="84.601" x2="55.4" y2="84.601" id="render-74-b" gradientUnits="userSpaceOnUse" gradientTransform="matrix(0.210938, 0.000000, 0.000000, 0.210937, 5.000000, 73.000000) matrix(-1 0 0 1 168.1284 0)"><stop offset="0" stop-color="#2F7889"/><stop offset="1" stop-color="#82AEC0"/></linearGradient></defs><g class="fills" id="fills-5f97f291-8dcf-809d-8008-86422e6f313c"><path d="M29.162841796875,89.13461303710938L29.110092163085938,92.38088989257812C29.110092163085938,92.38088989257812,26.58734130859375,92.2501220703125,22.569015502929688,91.55398559570312C19.940765380859375,91.09835815429688,18.5,92.5582275390625,18.5,92.5582275390625L18.476715087890625,89.13455200195312L29.162841796875,89.13461303710938Z" style="fill: url(&quot;#render-74-b&quot;);"/></g></g><g id="shape-5f97f291-8dcf-809d-8008-86422e6f751b"><g class="fills" id="fills-5f97f291-8dcf-809d-8008-86422e6f751b"><path d="M29.394927978515625,78.7628173828125C29.394927978515625,78.7628173828125,23.796585083007812,77.71026611328125,21.3392333984375,77.57315063476562C19.027420043945312,77.44454956054688,18.552703857421875,78.62136840820312,18.506378173828125,78.76284790039062L18.497970581054688,78.76266479492188C18.449356079101562,78.62139892578125,17.97467041015625,77.44659423828125,15.662796020507812,77.5731201171875C13.205581665039062,77.71026611328125,7.6071624755859375,78.76272583007812,7.6071624755859375,78.76272583007812L7.35833740234375,92.34710693359375C7.35833740234375,92.34710693359375,14.024017333984375,90.95086669921875,15.637588500976562,91.13226318359375C17.251312255859375,91.31356811523438,18.5,92.5582275390625,18.5,92.5582275390625C18.5,92.5582275390625,18.500076293945312,92.55615234375,18.500076293945312,92.55615234375L18.5,92.5582275390625C18.5,92.5582275390625,19.750762939453125,91.31350708007812,21.364669799804688,91.13226318359375C22.97833251953125,90.9508056640625,29.643875122070312,92.34716796875,29.643875122070312,92.34716796875L29.394927978515625,78.7628173828125Z" style="fill: rgb(245, 245, 245);"/></g></g><g id="shape-5f97f291-8dcf-809d-8008-86422e6f751c" style="opacity: 0.26;"><g class="fills" id="fills-5f97f291-8dcf-809d-8008-86422e6f751c"><path d="M16.310409545898438,77.57525634765625L15.1712646484375,91.11749267578125C15.35064697265625,91.11322021484375,15.509002685546875,91.11749267578125,15.635452270507812,91.13229370117188C17.246994018554688,91.3115234375,18.5,92.5582275390625,18.5,92.5582275390625L18.464035034179688,78.76272583007812C18.464035034179688,78.76272583007812,18.189971923828125,77.68276977539062,16.310409545898438,77.57525634765625Z" style="fill: rgb(148, 198, 214);"/></g></g><g id="shape-5f97f291-8dcf-809d-8008-86422e6f751d" rx="0" ry="0" style="fill: rgb(0, 0, 0);"><g id="shape-5f97f291-8dcf-809d-8008-86422e706c0b" style="opacity: 0.5;"><g class="fills" id="fills-5f97f291-8dcf-809d-8008-86422e706c0b"><path d="M10.564453125,88.43634033203125C9.914932250976562,88.5482177734375,9.362091064453125,88.64523315429688,9.039459228515625,88.70437622070312C9.039413452148438,88.85202026367188,9.0394287109375,88.99343872070312,9.039352416992188,89.13241577148438C9.336883544921875,89.0777587890625,9.893707275390625,88.97860717773438,10.56451416015625,88.86251831054688L10.564453125,88.43634033203125Z" style="fill: rgb(117, 117, 117);"/></g></g><g id="shape-5f97f291-8dcf-809d-8008-86422e706c0c" style="opacity: 0.5;"><g class="fills" id="fills-5f97f291-8dcf-809d-8008-86422e706c0c"><path d="M11.479965209960938,88.28448486328125L11.479949951171875,88.71273803710938C12.298309326171875,88.5799560546875,13.178024291992188,88.4447021484375,13.92694091796875,88.34991455078125L13.926727294921875,87.92385864257812C13.1822509765625,88.01669311523438,12.302658081054688,88.149658203125,11.479965209960938,88.28448486328125Z" style="fill: rgb(117, 117, 117);"/></g></g><g id="shape-5f97f291-8dcf-809d-8008-86422e706c0d" style="opacity: 0.5;"><g class="fills" id="fills-5f97f291-8dcf-809d-8008-86422e706c0d"><path d="M12.946075439453125,89.57537841796875C11.435577392578125,89.79495239257812,9.7376708984375,90.0963134765625,9.041671752929688,90.22308349609375C9.04156494140625,90.3790283203125,9.041641235351562,90.52267456054688,9.041488647460938,90.65109252929688C9.67230224609375,90.53533935546875,11.401947021484375,90.22720336914062,12.946029663085938,90.00155639648438L12.946075439453125,89.57537841796875Z" style="fill: rgb(117, 117, 117);"/></g></g><g id="shape-5f97f291-8dcf-809d-8008-86422e706c0e" style="opacity: 0.5;"><g class="fills" id="fills-5f97f291-8dcf-809d-8008-86422e706c0e"><path d="M17.430694580078125,89.71038818359375C17.048675537109375,89.5247802734375,16.198638916015625,89.23593139648438,14.781173706054688,89.35195922851562C14.513153076171875,89.373046875,14.201095581054688,89.40896606445312,13.861541748046875,89.451171875L13.861557006835938,89.87503051757812C14.21380615234375,89.83056640625,14.538665771484375,89.79483032226562,14.81500244140625,89.7716064453125C16.620559692382812,89.62191772460938,17.413558959960938,90.18307495117188,17.422195434570312,90.18719482421875L17.4326171875,90.1744384765625C17.4326171875,90.02899169921875,17.432647705078125,89.87484741210938,17.430694580078125,89.71038818359375Z" style="fill: rgb(117, 117, 117);"/></g></g><g id="shape-5f97f291-8dcf-809d-8008-86422e6faf35" style="opacity: 0.5;"><g class="fills" id="fills-5f97f291-8dcf-809d-8008-86422e6faf35"><path d="M12.311203002929688,80.56005859375C10.948532104492188,80.77099609375,9.58160400390625,81.015625,9.033050537109375,81.11474609375C9.033126831054688,81.25411987304688,9.033065795898438,81.39736938476562,9.032943725585938,81.54302978515625C9.509872436523438,81.45651245117188,10.90838623046875,81.203369140625,12.311019897460938,80.9862060546875L12.311203002929688,80.56005859375Z" style="fill: rgb(117, 117, 117);"/></g></g><g id="shape-5f97f291-8dcf-809d-8008-86422e7024ee" style="opacity: 0.5;"><g class="fills" id="fills-5f97f291-8dcf-809d-8008-86422e7024ee"><path d="M17.422088623046875,83.6038818359375C17.014907836914062,83.41806030273438,16.179641723632812,83.15878295898438,14.827667236328125,83.27066040039062C14.690460205078125,83.2811279296875,14.542831420898438,83.2957763671875,14.386749267578125,83.31292724609375L14.386611938476562,83.73681640625C14.557540893554688,83.71780395507812,14.715713500976562,83.70285034179688,14.863494873046875,83.69033813476562C16.432861328125,83.5615234375,17.234451293945312,83.96453857421875,17.4241943359375,84.07846069335938C17.422027587890625,83.92034912109375,17.42205810546875,83.761962890625,17.422088623046875,83.6038818359375Z" style="fill: rgb(117, 117, 117);"/></g></g><g id="shape-5f97f291-8dcf-809d-8008-86422e6fcf12" style="opacity: 0.5;"><g class="fills" id="fills-5f97f291-8dcf-809d-8008-86422e6fcf12"><path d="M14.8486328125,80.23095703125C14.403564453125,80.26669311523438,13.836181640625,80.33853149414062,13.2264404296875,80.42303466796875L13.226715087890625,80.84890747070312C13.848785400390625,80.7603759765625,14.43109130859375,80.68869018554688,14.88238525390625,80.6507568359375C16.3968505859375,80.52627563476562,17.196395874023438,80.89752197265625,17.419998168945312,81.02401733398438C17.419952392578125,80.86172485351562,17.420150756835938,80.70556640625,17.41998291015625,80.5537109375C17.006668090820312,80.37014770507812,16.17742919921875,80.12136840820312,14.8486328125,80.23095703125Z" style="fill: rgb(117, 117, 117);"/></g></g><g id="shape-5f97f291-8dcf-809d-8008-86422e6fcf13" style="opacity: 0.5;"><g class="fills" id="fills-5f97f291-8dcf-809d-8008-86422e6fcf13"><path d="M10.564590454101562,82.36358642578125C9.89801025390625,82.47738647460938,9.341033935546875,82.57650756835938,9.033126831054688,82.633544921875C9.033065795898438,82.7747802734375,9.033096313476562,82.918212890625,9.033126831054688,83.06155395507812C9.309463500976562,83.01101684570312,9.874862670898438,82.90982055664062,10.564666748046875,82.79159545898438L10.564590454101562,82.36358642578125Z" style="fill: rgb(117, 117, 117);"/></g></g><g id="shape-5f97f291-8dcf-809d-8008-86422e6fcf14" style="opacity: 0.5;"><g class="fills" id="fills-5f97f291-8dcf-809d-8008-86422e6fcf14"><path d="M17.419952392578125,82.0787353515625C17.0087890625,81.8931884765625,16.177658081054688,81.63995361328125,14.836090087890625,81.75180053710938C13.9774169921875,81.82156372070312,12.663253784179688,82.017578125,11.479965209960938,82.21160888671875L11.47991943359375,82.63983154296875C12.673965454101562,82.44369506835938,14.007080078125,82.24542236328125,14.871810913085938,82.1737060546875C16.411590576171875,82.04708862304688,17.213287353515625,82.43304443359375,17.420059204101562,82.5533447265625C17.420074462890625,82.3909912109375,17.419921875,82.23477172851562,17.419952392578125,82.0787353515625Z" style="fill: rgb(117, 117, 117);"/></g></g><g id="shape-5f97f291-8dcf-809d-8008-86422e7024ef" style="opacity: 0.5;"><g class="fills" id="fills-5f97f291-8dcf-809d-8008-86422e7024ef"><path d="M13.4691162109375,83.42660522460938C11.819656372070312,83.652587890625,9.76507568359375,84.01730346679688,9.035263061523438,84.1502685546875C9.035308837890625,84.29351806640625,9.035385131835938,84.43487548828125,9.035186767578125,84.57830810546875C9.678497314453125,84.46029663085938,11.7816162109375,84.08270263671875,13.469070434570312,83.85067749023438L13.4691162109375,83.42660522460938Z" style="fill: rgb(117, 117, 117);"/></g></g><g id="shape-5f97f291-8dcf-809d-8008-86422e6faf32" style="opacity: 0.5;"><g class="fills" id="fills-5f97f291-8dcf-809d-8008-86422e6faf32"><path d="M10.338760375976562,79.36611938476562C9.769241333007812,79.46514892578125,9.3031005859375,79.54962158203125,9.037353515625,79.595947265625C9.037399291992188,79.72677612304688,9.037322998046875,79.87020874023438,9.035369873046875,80.02426147460938C9.26934814453125,79.98193359375,9.746047973632812,79.89553833007812,10.3388671875,79.79208374023438L10.338760375976562,79.36611938476562Z" style="fill: rgb(117, 117, 117);"/></g></g><g id="shape-5f97f291-8dcf-809d-8008-86422e6faf33" style="opacity: 0.5;"><g class="fills" id="fills-5f97f291-8dcf-809d-8008-86422e6faf33"><path d="M15.473052978515625,78.68682861328125L15.472976684570312,79.1065673828125C16.597259521484375,79.10467529296875,17.219512939453125,79.38720703125,17.424301147460938,79.5010986328125C17.42425537109375,79.32601928710938,17.426254272460938,79.16983032226562,17.42633056640625,79.03280639648438C17.078231811523438,78.87677001953125,16.441299438476562,78.6846923828125,15.473052978515625,78.68682861328125Z" style="fill: rgb(117, 117, 117);"/></g></g><g id="shape-5f97f291-8dcf-809d-8008-86422e6faf34" style="opacity: 0.5;"><g class="fills" id="fills-5f97f291-8dcf-809d-8008-86422e6faf34"><path d="M14.557540893554688,78.73959350585938C13.644210815429688,78.83245849609375,12.372390747070312,79.0264892578125,11.254196166992188,79.21212768554688L11.254348754882812,79.64028930664062C12.36370849609375,79.456787109375,13.637939453125,79.26065063476562,14.557647705078125,79.16366577148438L14.557540893554688,78.73959350585938Z" style="fill: rgb(117, 117, 117);"/></g></g><g id="shape-5f97f291-8dcf-809d-8008-86422e7024f0" style="opacity: 0.5;"><g class="fills" id="fills-5f97f291-8dcf-809d-8008-86422e7024f0"><path d="M10.958908081054688,85.33358764648438C10.129913330078125,85.4725341796875,9.412918090820312,85.60137939453125,9.035232543945312,85.66897583007812C9.035049438476562,85.812255859375,9.035263061523438,85.95587158203125,9.035110473632812,86.09707641601562C9.376876831054688,86.0338134765625,10.104568481445312,85.903076171875,10.958938598632812,85.75946044921875L10.958908081054688,85.33358764648438Z" style="fill: rgb(117, 117, 117);"/></g></g><g id="shape-5f97f291-8dcf-809d-8008-86422e7024f1" style="opacity: 0.5;"><g class="fills" id="fills-5f97f291-8dcf-809d-8008-86422e7024f1"><path d="M17.424148559570312,85.13101196289062C17.021255493164062,84.94537353515625,16.181793212890625,84.67965698242188,14.81695556640625,84.79132080078125C14.057662963867188,84.85452270507812,12.943710327148438,85.01296997070312,11.876480102539062,85.18380737304688L11.876678466796875,85.60986328125C12.9544677734375,85.43692016601562,14.087234497070312,85.27432250976562,14.850845336914062,85.21127319335938C16.460220336914062,85.0782470703125,17.263931274414062,85.50851440429688,17.424301147460938,85.60565185546875C17.42425537109375,85.44741821289062,17.4241943359375,85.28912353515625,17.424148559570312,85.13101196289062Z" style="fill: rgb(117, 117, 117);"/></g></g><g id="shape-5f97f291-8dcf-809d-8008-86422e7024f2" style="opacity: 0.5;"><g class="fills" id="fills-5f97f291-8dcf-809d-8008-86422e7024f2"><path d="M17.428390502929688,88.18325805664062C17.044525146484375,87.9998779296875,16.213546752929688,87.72348022460938,14.842269897460938,87.82687377929688L14.842300415039062,88.25076293945312C16.590927124023438,88.10943603515625,17.384048461914062,88.63253784179688,17.428314208984375,88.66433715820312C17.428451538085938,88.50808715820312,17.42864990234375,88.3477783203125,17.428390502929688,88.18325805664062Z" style="fill: rgb(117, 117, 117);"/></g></g><g id="shape-5f97f291-8dcf-809d-8008-86422e706c0f" style="opacity: 0.5;"><g class="fills" id="fills-5f97f291-8dcf-809d-8008-86422e706c0f"><path d="M12.631683349609375,86.58428955078125C11.193145751953125,86.7996826171875,9.668075561523438,87.07168579101562,9.037429809570312,87.18759155273438C9.037368774414062,87.333251953125,9.037322998046875,87.47454833984375,9.037429809570312,87.61590576171875C9.602615356445312,87.51239013671875,11.157257080078125,87.23391723632812,12.631683349609375,87.0106201171875L12.631683349609375,86.58428955078125Z" style="fill: rgb(117, 117, 117);"/></g></g><g id="shape-5f97f291-8dcf-809d-8008-86422e706c10" style="opacity: 0.5;"><g class="fills" id="fills-5f97f291-8dcf-809d-8008-86422e706c10"><path d="M17.426361083984375,86.656005859375C17.029647827148438,86.47064208984375,16.188156127929688,86.19622802734375,14.804367065429688,86.31015014648438C14.4498291015625,86.33969116210938,14.0177001953125,86.39031982421875,13.5494384765625,86.45367431640625L13.549331665039062,86.87960815429688C14.032257080078125,86.814208984375,14.47735595703125,86.7615966796875,14.840286254882812,86.73193359375C16.5023193359375,86.59506225585938,17.306106567382812,87.05691528320312,17.42852783203125,87.13497924804688C17.426284790039062,86.97882080078125,17.42620849609375,86.81838989257812,17.426361083984375,86.656005859375Z" style="fill: rgb(117, 117, 117);"/></g></g></g><g id="shape-5f97f291-8dcf-809d-8008-86422e706c11" rx="0" ry="0" style="fill: rgb(0, 0, 0);"><g id="shape-5f97f291-8dcf-809d-8008-86422e713d3e" style="opacity: 0.5;"><g class="fills" id="fills-5f97f291-8dcf-809d-8008-86422e713d3e"><path d="M22.493209838867188,86.30807495117188C21.130386352539062,86.20037841796875,20.29925537109375,86.47259521484375,19.907058715820312,86.65603637695312C19.906936645507812,86.81637573242188,19.906936645507812,86.97662353515625,19.906982421875,87.135009765625C20.029144287109375,87.056884765625,20.83087158203125,86.59490966796875,22.493026733398438,86.73196411132812L22.493209838867188,86.30807495117188Z" style="fill: rgb(117, 117, 117);"/></g></g><g id="shape-5f97f291-8dcf-809d-8008-86422e714c40" style="opacity: 0.5;"><g class="fills" id="fills-5f97f291-8dcf-809d-8008-86422e714c40"><path d="M23.410552978515625,86.40518188476562L23.410598754882812,86.82904052734375C24.279693603515625,86.93878173828125,25.3238525390625,87.10330200195312,26.241470336914062,87.25518798828125L26.241470336914062,86.82693481445312C25.317596435546875,86.67510986328125,24.273284912109375,86.51260375976562,23.410552978515625,86.40518188476562Z" style="fill: rgb(117, 117, 117);"/></g></g><g id="shape-5f97f291-8dcf-809d-8008-86422e706c12" style="opacity: 0.5;"><g class="fills" id="fills-5f97f291-8dcf-809d-8008-86422e706c12"><path d="M23.648910522460938,79.26690673828125C25.395584106445312,79.49893188476562,27.677886962890625,79.9124755859375,28.298065185546875,80.02420043945312C28.29803466796875,79.86807250976562,28.298004150390625,79.72677612304688,28.295867919921875,79.59597778320312C27.5703125,79.46310424804688,25.349212646484375,79.06649780273438,23.646759033203125,78.84091186523438L23.646881103515625,79.26702880859375Z" style="fill: rgb(117, 117, 117);"/></g></g><g id="shape-5f97f291-8dcf-809d-8008-86422e708e50" style="opacity: 0.5;"><g class="fills" id="fills-5f97f291-8dcf-809d-8008-86422e708e50"><path d="M22.731399536132812,78.73538208007812C22.64080810546875,78.72702026367188,22.55413818359375,78.718505859375,22.471923828125,78.7120361328125C21.149307250976562,78.60247802734375,20.322479248046875,78.84930419921875,19.906982421875,79.03286743164062C19.906967163085938,79.169921875,19.909042358398438,79.32815551757812,19.909027099609375,79.50106811523438C20.145248413085938,79.3702392578125,20.944656372070312,79.00949096679688,22.438156127929688,79.1319580078125C22.530853271484375,79.14035034179688,22.630172729492188,79.1488037109375,22.731399536132812,79.15927124023438L22.731399536132812,78.73538208007812Z" style="fill: rgb(117, 117, 117);"/></g></g><g id="shape-5f97f291-8dcf-809d-8008-86422e708e51" style="opacity: 0.5;"><g class="fills" id="fills-5f97f291-8dcf-809d-8008-86422e708e51"><path d="M26.59161376953125,81.243408203125C27.365707397460938,81.37628173828125,28.006988525390625,81.49014282226562,28.3001708984375,81.5450439453125C28.300064086914062,81.39739990234375,28.3001708984375,81.2559814453125,28.300277709960938,81.116943359375C27.968963623046875,81.05572509765625,27.34039306640625,80.94403076171875,26.59161376953125,80.81732177734375L26.59161376953125,81.243408203125Z" style="fill: rgb(117, 117, 117);"/></g></g><g id="shape-5f97f291-8dcf-809d-8008-86422e708e55" style="opacity: 0.5;"><g class="fills" id="fills-5f97f291-8dcf-809d-8008-86422e708e55"><path d="M24.56427001953125,83.52798461914062L24.564453125,83.95382690429688C26.093719482421875,84.1817626953125,27.741287231445312,84.4791259765625,28.298095703125,84.58047485351562C28.298110961914062,84.43707275390625,28.29803466796875,84.29367065429688,28.298141479492188,84.15240478515625C27.669342041015625,84.03616333007812,26.05596923828125,83.74932861328125,24.56427001953125,83.52798461914062Z" style="fill: rgb(117, 117, 117);"/></g></g><g id="shape-5f97f291-8dcf-809d-8008-86422e708e56" style="opacity: 0.5;"><g class="fills" id="fills-5f97f291-8dcf-809d-8008-86422e708e56"><path d="M24.750137329101562,85.07412719726562C23.916732788085938,84.94741821289062,23.108871459960938,84.83984375,22.518402099609375,84.7913818359375C21.151504516601562,84.67959594726562,20.311798095703125,84.9453125,19.911178588867188,85.13095092773438C19.911178588867188,85.28924560546875,19.911163330078125,85.44943237304688,19.911178588867188,85.60781860351562C20.071533203125,85.508544921875,20.87518310546875,85.08041381835938,22.484527587890625,85.21343994140625C23.081512451171875,85.26190185546875,23.90631103515625,85.37350463867188,24.752090454101562,85.5023193359375L24.752243041992188,85.07403564453125Z" style="fill: rgb(117, 117, 117);"/></g></g><g id="shape-5f97f291-8dcf-809d-8008-86422e708e52" style="opacity: 0.5;"><g class="fills" id="fills-5f97f291-8dcf-809d-8008-86422e708e52"><path d="M25.676071166992188,80.66317749023438C24.534912109375,80.47994995117188,23.3031005859375,80.29843139648438,22.48455810546875,80.23095703125C21.155715942382812,80.12136840820312,20.326675415039062,80.37008666992188,19.911209106445312,80.55368041992188C19.911087036132812,80.70547485351562,19.911163330078125,80.86163330078125,19.911209106445312,81.02398681640625C20.134735107421875,80.89755249023438,20.93414306640625,80.5263671875,22.448776245117188,80.65072631835938C23.27349853515625,80.71823120117188,24.5244140625,80.90374755859375,25.673858642578125,81.08935546875L25.673934936523438,80.66336059570312Z" style="fill: rgb(117, 117, 117);"/></g></g><g id="shape-5f97f291-8dcf-809d-8008-86422e708e53" style="opacity: 0.5;"><g class="fills" id="fills-5f97f291-8dcf-809d-8008-86422e708e53"><path d="M25.498916625976562,82.15252685546875L25.498870849609375,82.57879638671875C26.724502563476562,82.77484130859375,27.865676879882812,82.98153686523438,28.300140380859375,83.06173706054688C28.300277709960938,82.91629028320312,28.300125122070312,82.7747802734375,28.300048828125,82.6334228515625C27.808807373046875,82.544921875,26.688629150390625,82.34442138671875,25.498916625976562,82.15252685546875Z" style="fill: rgb(117, 117, 117);"/></g></g><g id="shape-5f97f291-8dcf-809d-8008-86422e714c41" style="opacity: 0.5;"><g class="fills" id="fills-5f97f291-8dcf-809d-8008-86422e714c41"><path d="M21.815963745117188,81.72647094726562C20.870803833007812,81.73291015625,20.248519897460938,81.92684936523438,19.913330078125,82.07861328125C19.913238525390625,82.23486328125,19.913406372070312,82.39108276367188,19.91314697265625,82.55136108398438C20.090484619140625,82.45010375976562,20.6959228515625,82.15692138671875,21.815963745117188,82.14627075195312L21.815963745117188,81.72647094726562Z" style="fill: rgb(117, 117, 117);"/></g></g><g id="shape-5f97f291-8dcf-809d-8008-86422e714c42" style="opacity: 0.5;"><g class="fills" id="fills-5f97f291-8dcf-809d-8008-86422e714c42"><path d="M22.731414794921875,81.77288818359375L22.731369018554688,82.19680786132812C23.256591796875,82.24960327148438,23.9085693359375,82.33822631835938,24.581314086914062,82.4373779296875L24.58123779296875,82.01126098632812C23.90625,81.90997314453125,23.256698608398438,81.82354736328125,22.731414794921875,81.77288818359375Z" style="fill: rgb(117, 117, 117);"/></g></g><g id="shape-5f97f291-8dcf-809d-8008-86422e708e54" style="opacity: 0.5;"><g class="fills" id="fills-5f97f291-8dcf-809d-8008-86422e708e54"><path d="M23.646926879882812,83.3992919921875C23.222869873046875,83.34451293945312,22.8306884765625,83.29803466796875,22.505752563476562,83.27264404296875C21.153564453125,83.160888671875,20.318206787109375,83.42034912109375,19.911163330078125,83.60601806640625C19.9111328125,83.76412963867188,19.911178588867188,83.92230224609375,19.911178588867188,84.08053588867188C20.100982666015625,83.96875,20.904739379882812,83.56369018554688,22.472015380859375,83.69232177734375C22.805267333984375,83.71990966796875,23.2103271484375,83.76626586914062,23.646774291992188,83.82522583007812L23.646926879882812,83.3992919921875Z" style="fill: rgb(117, 117, 117);"/></g></g><g id="shape-5f97f291-8dcf-809d-8008-86422e70e66d" style="opacity: 0.5;"><g class="fills" id="fills-5f97f291-8dcf-809d-8008-86422e70e66d"><path d="M23.83477783203125,87.9786376953125C23.351531982421875,87.9130859375,22.904449462890625,87.8604736328125,22.541671752929688,87.83102416992188C21.140960693359375,87.715087890625,20.295059204101562,87.99758911132812,19.906967163085938,88.18328857421875C19.906967163085938,88.34786987304688,19.90704345703125,88.50808715820312,19.907012939453125,88.6641845703125C19.951278686523438,88.63265991210938,20.7486572265625,88.10519409179688,22.509979248046875,88.2508544921875C22.881195068359375,88.28036499023438,23.341140747070312,88.3350830078125,23.838821411132812,88.40261840820312L23.838790893554688,87.978759765625Z" style="fill: rgb(117, 117, 117);"/></g></g><g id="shape-5f97f291-8dcf-809d-8008-86422e713d3b" style="opacity: 0.5;"><g class="fills" id="fills-5f97f291-8dcf-809d-8008-86422e713d3b"><path d="M24.750076293945312,88.10943603515625L24.750152587890625,88.53549194335938C26.201400756835938,88.75482177734375,27.724212646484375,89.02902221679688,28.293838500976562,89.13238525390625C28.293731689453125,88.99319458007812,28.293792724609375,88.84967041015625,28.293838500976562,88.704345703125C27.661102294921875,88.59048461914062,26.167694091796875,88.3245849609375,24.750076293945312,88.10943603515625Z" style="fill: rgb(117, 117, 117);"/></g></g><g id="shape-5f97f291-8dcf-809d-8008-86422e713d3c" style="opacity: 0.5;"><g class="fills" id="fills-5f97f291-8dcf-809d-8008-86422e713d3c"><path d="M25.498916625976562,89.744384765625C24.429397583007812,89.57333374023438,23.311492919921875,89.41305541992188,22.552047729492188,89.34982299804688C21.132415771484375,89.23382568359375,20.284439086914062,89.5247802734375,19.902786254882812,89.70831298828125C19.90277099609375,89.872802734375,19.9027099609375,90.02676391601562,19.902816772460938,90.17233276367188L19.913375854492188,90.18499755859375C19.919662475585938,90.18087768554688,20.712600708007812,89.61968994140625,22.5206298828125,89.76934814453125C23.286056518554688,89.83291625976562,24.423171997070312,89.99734497070312,25.503143310546875,90.17025756835938L25.503143310546875,89.744140625Z" style="fill: rgb(117, 117, 117);"/></g></g><g id="shape-5f97f291-8dcf-809d-8008-86422e70e66b" style="opacity: 0.5;"><g class="fills" id="fills-5f97f291-8dcf-809d-8008-86422e70e66b"><path d="M25.665725708007812,85.21746826171875L25.66558837890625,85.64578247070312C26.81304931640625,85.8314208984375,27.863494873046875,86.02120971679688,28.295852661132812,86.09921264648438C28.295974731445312,85.957763671875,28.295852661132812,85.81454467773438,28.295974731445312,85.67095947265625C27.815078735351562,85.58245849609375,26.781463623046875,85.3966064453125,25.665725708007812,85.21746826171875Z" style="fill: rgb(117, 117, 117);"/></g></g><g id="shape-5f97f291-8dcf-809d-8008-86422e70e66c" style="opacity: 0.5;"><g class="fills" id="fills-5f97f291-8dcf-809d-8008-86422e70e66c"><path d="M27.15679931640625,86.98501586914062L27.15679931640625,87.41336059570312C27.654693603515625,87.49990844726562,28.061965942382812,87.57357788085938,28.29388427734375,87.61590576171875C28.293838500976562,87.4744873046875,28.29388427734375,87.3309326171875,28.293838500976562,87.1876220703125C28.040618896484375,87.14120483398438,27.639968872070312,87.06951904296875,27.15679931640625,86.98501586914062Z" style="fill: rgb(117, 117, 117);"/></g></g><g id="shape-5f97f291-8dcf-809d-8008-86422e713d3d" style="opacity: 0.5;"><g class="fills" id="fills-5f97f291-8dcf-809d-8008-86422e713d3d"><path d="M26.416519165039062,89.89614868164062L26.416595458984375,90.32437133789062C27.237045288085938,90.46139526367188,27.937423706054688,90.58807373046875,28.291702270507812,90.65338134765625C28.291732788085938,90.52481079101562,28.291748046875,90.38125610351562,28.291671752929688,90.22528076171875C27.905670166015625,90.15335083007812,27.2137451171875,90.02883911132812,26.416519165039062,89.89614868164062Z" style="fill: rgb(117, 117, 117);"/></g></g></g><g id="shape-5f97f291-8dcf-809d-8008-86422e714c43"><g class="fills" id="fills-5f97f291-8dcf-809d-8008-86422e714c43"><path d="M20.010223388671875,93.76693725585938C19.77423095703125,93.7457275390625,19.556869506835938,93.89138793945312,19.480789184570312,94.11700439453125C19.366943359375,94.4608154296875,19.101242065429688,94.91006469726562,18.5,94.91015625C17.892608642578125,94.91018676757812,17.624526977539062,94.45880126953125,17.508544921875,94.11471557617188C17.43280029296875,93.89340209960938,17.21966552734375,93.75,16.985321044921875,93.768798828125L16.903213500976562,93.77520751953125L16.9053955078125,93.84268188476562C16.905303955078125,94.72225952148438,17.61834716796875,95.43524169921875,18.498016357421875,95.43511962890625C19.377487182617188,95.43539428710938,20.090347290039062,94.7222900390625,20.090484619140625,93.84268188476562C20.09039306640625,93.82159423828125,20.088470458984375,93.77316284179688,20.088470458984375,93.77316284179688L20.010223388671875,93.76693725585938Z" style="fill: rgb(97, 97, 97);"/></g></g></g><g id="shape-5f97f291-8dcf-809d-8008-864824d9c37a"><defs><linearGradient id="fill-color-gradient-render-116-0" x1="0.5" y1="0" x2="0.5" y2="1" gradientTransform=""><stop offset="0" stop-color="#ffffb6" stop-opacity="0.43137254901960786"/><stop offset="1" stop-color="#efef32" stop-opacity="0"/></linearGradient><pattern patternUnits="userSpaceOnUse" x="5.684341886080802e-14" y="56" width="78" height="44" patternTransform="matrix(1.000000, 0.000000, 0.000000, 1.000000, 0.000000, 0.000000)" id="fill-0-render-116"><g><rect width="78" height="44" style="fill: url(&quot;#fill-color-gradient-render-116-0&quot;);"/></g></pattern></defs><g class="fills" id="fills-5f97f291-8dcf-809d-8008-864824d9c37a"><path d="M78,56L52,100L5.684341886080802e-14,100L5.684341886080802e-14,90L78,56" fill="url(#fill-0-render-116)"/></g></g><g id="shape-5f97f291-8dcf-809d-8008-864398e24f80" filter="url(#filter-render-117)" xml:space="preserve" rx="0" ry="0" style="fill: rgb(0, 0, 0);"><defs><filter id="filter-render-117" x="-0.3125" y="-0.3125" width="1.625" height="1.6875" filterUnits="objectBoundingBox" color-interpolation-filters="sRGB"><feFlood flood-opacity="0" result="BackgroundImageFix"/><feColorMatrix in="SourceAlpha" type="matrix" values="0 0 0 0 0 0 0 0 0 0 0 0 0 0 0 0 0 0 127 0"/><feOffset dx="0" dy="1"/><feGaussianBlur stdDeviation="0"/><feColorMatrix type="matrix" values="0 0 0 0 0 0 0 0 0 0 0 0 0 0 0 0 0 0 0.1 0"/><feBlend mode="normal" in2="BackgroundImageFix" result="filter_5f97f291-8dcf-809d-8008-8643cbeb624e"/><feBlend mode="normal" in="SourceGraphic" in2="filter_5f97f291-8dcf-809d-8008-8643cbeb624e" result="shape"/></filter><filter id="filter-shadow-render-117" x="-0.3125" y="-0.3125" width="1.625" height="1.6875" filterUnits="objectBoundingBox" color-interpolation-filters="sRGB"><feFlood flood-opacity="0" result="BackgroundImageFix"/><feColorMatrix in="SourceAlpha" type="matrix" values="0 0 0 0 0 0 0 0 0 0 0 0 0 0 0 0 0 0 127 0"/><feOffset dx="0" dy="1"/><feGaussianBlur stdDeviation="0"/><feColorMatrix type="matrix" values="0 0 0 0 0 0 0 0 0 0 0 0 0 0 0 0 0 0 0.1 0"/><feBlend mode="normal" in2="BackgroundImageFix" result="filter_5f97f291-8dcf-809d-8008-8643cbeb624e"/><feBlend mode="normal" in="SourceGraphic" in2="filter_5f97f291-8dcf-809d-8008-8643cbeb624e" result="shape"/></filter></defs><g id="shape-5f97f291-8dcf-809d-8008-864398e3bf71" style="display: none;"><g class="fills" id="fills-5f97f291-8dcf-809d-8008-864398e3bf71"><rect width="48" height="47.99989385741617" x="52.00000000000006" transform="matrix(-1.000000, 0.000000, 0.000000, 1.000000, 152.000000, 0.000000)" style="fill: none;" ry="0" fill="none" rx="0" y="50.000014590051876"/></g></g><g id="shape-5f97f291-8dcf-809d-8008-864398e3f2bc"><g class="fills" id="fills-5f97f291-8dcf-809d-8008-864398e3f2bc"><path d="M96.0152587890625,65.24285888671875L80.51358032226562,50.536285400390625C79.74591064453125,49.80767822265625,78.55828857421875,49.823455810546875,77.80966186523438,50.571685791015625L75.42471313476562,52.95660400390625C74.66921997070312,53.71221923828125,74.66921997070312,54.94146728515625,75.42471313476562,55.696990966796875C76.18035888671875,56.45245361328125,77.40960693359375,56.45245361328125,78.16519165039062,55.696990966796875L79.21539306640625,54.646636962890625L92.2879638671875,67.0489501953125L78.35931396484375,93.77676391601562L82.72933959960938,93.77676391601562L96.39999389648438,67.54437255859375C96.79754638671875,66.78140258789062,96.63925170898438,65.8349609375,96.0152587890625,65.24285888671875Z" style="fill: rgb(217, 220, 223);"/></g></g><g id="shape-5f97f291-8dcf-809d-8008-864398e40537"><g class="fills" id="fills-5f97f291-8dcf-809d-8008-864398e40537"><path d="M96.0152587890625,65.24285888671875L91.76315307617188,61.208740234375C90.54098510742188,61.738677978515625,89.5164794921875,62.640838623046875,88.83425903320312,63.77215576171875L92.28799438476562,67.04888916015625L89.89471435546875,71.64154052734375C90.83078002929688,72.53604125976562,92.03781127929688,73.1484375,93.37945556640625,73.34042358398438L96.39999389648438,67.54425048828125C96.79754638671875,66.78140258789062,96.63925170898438,65.8349609375,96.0152587890625,65.24285888671875Z" style="fill: rgb(179, 185, 191);"/></g></g><g id="shape-5f97f291-8dcf-809d-8008-864398e40538"><g class="fills" id="fills-5f97f291-8dcf-809d-8008-864398e40538"><path d="M94.28402709960938,62.326141357421875C91.68148803710938,62.326141357421875,89.56405639648438,64.44354248046875,89.56405639648438,67.04617309570312C89.56405639648438,69.64871215820312,91.68148803710938,71.76614379882812,94.28402709960938,71.76614379882812C96.88665771484375,71.76614379882812,99.00408935546875,69.64871215820312,99.00408935546875,67.04617309570312C99.00408935546875,64.44354248046875,96.88677978515625,62.326141357421875,94.28402709960938,62.326141357421875Z" style="fill: rgb(255, 215, 145);"/></g></g><g id="shape-5f97f291-8dcf-809d-8008-864398e46de9"><g class="fills" id="fills-5f97f291-8dcf-809d-8008-864398e46de9"><path d="M94.28402709960938,63.07147216796875C92.09237670898438,63.07147216796875,90.30926513671875,64.85458374023438,90.30926513671875,67.04629516601562C90.30926513671875,69.23794555664062,92.09237670898438,71.02105712890625,94.28402709960938,71.02105712890625C96.47576904296875,71.02105712890625,98.25888061523438,69.23794555664062,98.25888061523438,67.04629516601562C98.25888061523438,64.85458374023438,96.47589111328125,63.07147216796875,94.28402709960938,63.07147216796875Z" style="fill: rgb(255, 196, 79);"/></g></g><g id="shape-5f97f291-8dcf-809d-8008-864398e46dea"><g class="fills" id="fills-5f97f291-8dcf-809d-8008-864398e46dea"><path d="M67.19699096679688,63.917999267578125C64.73660278320312,61.457794189453125,60.73358154296875,61.457794189453125,58.27337646484375,63.917999267578125C57.08154296875,65.10983276367188,56.425079345703125,66.69442749023438,56.425079345703125,68.37979125976562C56.425079345703125,70.06539916992188,57.081390380859375,71.64996337890625,58.273284912109375,72.84176635742188C59.50347900390625,74.07186889648438,61.119354248046875,74.6868896484375,62.735137939453125,74.6868896484375C64.35092163085938,74.6868896484375,65.96676635742188,74.07186889648438,67.19699096679688,72.84176635742188C69.65725708007812,70.38150024414062,69.65725708007812,66.37832641601562,67.19699096679688,63.917999267578125Z" style="fill: rgb(255, 196, 79);"/></g></g><g id="shape-5f97f291-8dcf-809d-8008-864398e4a212"><g class="fills" id="fills-5f97f291-8dcf-809d-8008-864398e4a212"><path d="M64.02597045898438,73.30056762695312C62.41009521484375,73.30056762695312,60.794281005859375,72.68557739257812,59.564117431640625,71.45550537109375C58.37237548828125,70.263671875,57.715972900390625,68.67910766601562,57.715972900390625,66.99359130859375C57.715972900390625,65.70657348632812,58.099822998046875,64.47900390625,58.811492919921875,63.43951416015625C58.62548828125,63.58746337890625,58.4453125,63.746063232421875,58.273284912109375,63.918121337890625C57.081390380859375,65.10992431640625,56.42498779296875,66.69448852539062,56.42498779296875,68.37994384765625C56.42498779296875,70.0654296875,57.081329345703125,71.6500244140625,58.273193359375,72.84185791015625C59.50335693359375,74.07196044921875,61.119232177734375,74.68695068359375,62.73504638671875,74.68695068359375C64.35079956054688,74.68695068359375,65.96670532226562,74.07196044921875,67.19686889648438,72.84185791015625C67.4793701171875,72.55935668945312,67.72787475585938,72.25564575195312,67.945556640625,71.93716430664062C66.80181884765625,72.84515380859375,65.41424560546875,73.30056762695312,64.02597045898438,73.30056762695312Z" style="fill: rgb(247, 177, 77);"/></g></g><g id="shape-5f97f291-8dcf-809d-8008-864398e4a213"><g class="fills" id="fills-5f97f291-8dcf-809d-8008-864398e4a213"><path d="M77.54025268554688,94.07489013671875L77.54025268554688,90.89505004882812C77.54025268554688,90.4833984375,77.2066650390625,90.1497802734375,76.79489135742188,90.1497802734375L74.41000366210938,90.1497802734375C73.99832153320312,90.1497802734375,73.6646728515625,90.48336791992188,73.6646728515625,90.89505004882812L73.6646728515625,94.07489013671875C73.6646728515625,94.0916748046875,73.66610717773438,94.1080322265625,73.66717529296875,94.12460327148438L77.53756713867188,94.12460327148438C77.53887939453125,94.1080322265625,77.54025268554688,94.0916748046875,77.54025268554688,94.07489013671875Z" style="fill: rgb(255, 196, 79);"/></g></g><g id="shape-5f97f291-8dcf-809d-8008-864398e4a214"><g class="fills" id="fills-5f97f291-8dcf-809d-8008-864398e4a214"><path d="M77.54025268554688,94.07489013671875L77.54025268554688,92.6837158203125L73.66473388671875,92.6837158203125L73.66473388671875,94.07489013671875C73.66473388671875,94.0916748046875,73.66616821289062,94.1080322265625,73.66720581054688,94.12460327148438L77.53768920898438,94.12460327148438C77.53887939453125,94.1080322265625,77.54025268554688,94.0916748046875,77.54025268554688,94.07489013671875Z" style="fill: rgb(247, 177, 77);"/></g></g><g id="shape-5f97f291-8dcf-809d-8008-864398e4eb38"><g class="fills" id="fills-5f97f291-8dcf-809d-8008-864398e4eb38"><path d="M88.71929931640625,93.32958984375L71.23016357421875,93.32958984375C69.9425048828125,93.32958984375,68.89495849609375,94.37713623046875,68.89495849609375,95.66476440429688L68.89495849609375,97.25469970703125C68.89495849609375,97.66632080078125,69.22854614257812,97.99996948242188,69.64031982421875,97.99996948242188L90.30935668945312,97.99996948242188C90.72097778320312,97.99996948242188,91.05462646484375,97.66644287109375,91.05462646484375,97.25469970703125L91.05462646484375,95.66476440429688C91.0545654296875,94.37713623046875,90.00701904296875,93.32958984375,88.71929931640625,93.32958984375Z" style="fill: rgb(142, 149, 159);"/></g></g><g id="shape-5f97f291-8dcf-809d-8008-864398e4eb39"><g class="fills" id="fills-5f97f291-8dcf-809d-8008-864398e4eb39"><path d="M68.89508056640625,96.658447265625L68.89508056640625,97.25469970703125C68.89508056640625,97.66632080078125,69.22860717773438,97.99996948242188,69.640380859375,97.99996948242188L90.30935668945312,97.99996948242188C90.72097778320312,97.99996948242188,91.05462646484375,97.66644287109375,91.05462646484375,97.25469970703125L91.05462646484375,96.658447265625L68.89508056640625,96.658447265625Z" style="fill: rgb(104, 114, 126);"/></g></g><g id="shape-5f97f291-8dcf-809d-8008-864398e4eb3a"><g class="fills" id="fills-5f97f291-8dcf-809d-8008-864398e4eb3a"><path d="M94.28402709960938,64.71102905273438C92.99639892578125,64.71102905273438,91.9488525390625,65.75857543945312,91.9488525390625,67.04629516601562C91.9488525390625,68.33392333984375,92.99639892578125,69.3814697265625,94.28402709960938,69.3814697265625C95.57174682617188,69.3814697265625,96.61929321289062,68.33392333984375,96.61929321289062,67.04629516601562C96.61929321289062,65.75857543945312,95.57174682617188,64.71102905273438,94.28402709960938,64.71102905273438Z" style="fill: rgb(223, 122, 110);"/></g></g><g id="shape-5f97f291-8dcf-809d-8008-864398e4eb3b"><g class="fills" id="fills-5f97f291-8dcf-809d-8008-864398e4eb3b"><path d="M94.28402709960938,65.45635986328125C93.40744018554688,65.45635986328125,92.69412231445312,66.16961669921875,92.69412231445312,67.04629516601562C92.69412231445312,67.92291259765625,93.40744018554688,68.63613891601562,94.28402709960938,68.63613891601562C95.16070556640625,68.63613891601562,95.87393188476562,67.92291259765625,95.87393188476562,67.04629516601562C95.87408447265625,66.16949462890625,95.16070556640625,65.45635986328125,94.28402709960938,65.45635986328125Z" style="fill: rgb(255, 140, 120);"/></g></g><g id="shape-5f97f291-8dcf-809d-8008-864398e50fc4"><g class="fills" id="fills-5f97f291-8dcf-809d-8008-864398e50fc4"><ellipse cx="76.39759375000011" cy="91.29220453027224" rx="0.39749999999997954" ry="0.3974991210067458" transform="matrix(-1.000000, 0.000000, 0.000000, 1.000000, 152.795188, 0.000000)" style="fill: rgb(255, 215, 145);"/></g></g><g id="shape-5f97f291-8dcf-809d-8008-864398e50fc5"><g class="fills" id="fills-5f97f291-8dcf-809d-8008-864398e50fc5"><path d="M53.21405029296875,58.85906982421875C52.922943115234375,59.150177001953125,52.922943115234375,59.6219482421875,53.21405029296875,59.912994384765625L71.20205688476562,77.90078735351562C71.34765625,78.04629516601562,71.5384521484375,78.11904907226562,71.72909545898438,78.11904907226562C71.91983032226562,78.11904907226562,72.11062622070312,78.04629516601562,72.25619506835938,77.90078735351562C76.25125122070312,73.90576171875,77.31875610351562,67.89984130859375,74.99163818359375,62.79864501953125L74.41009521484375,60.745513916015625L70.37643432617188,56.71173095703125L68.31646728515625,56.123382568359375C63.21502685546875,53.79644775390625,57.209136962890625,54.86395263671875,53.21405029296875,58.85906982421875Z" style="fill: rgb(255, 140, 120);"/></g></g><g id="shape-5f97f291-8dcf-809d-8008-864398e50fc6"><g class="fills" id="fills-5f97f291-8dcf-809d-8008-864398e50fc6"><path d="M78.43948364257812,56.048309326171875L75.06671142578125,52.67572021484375C74.62567138671875,52.234619140625,74.03924560546875,51.99163818359375,73.41549682617188,51.99163818359375C72.79177856445312,51.99163818359375,72.20529174804688,52.23455810546875,71.76419067382812,52.67559814453125L70.60540771484375,53.834381103515625L70.56784057617188,55.121856689453125L76.00006103515625,60.554107666015625L77.28070068359375,60.5096435546875L78.43954467773438,59.35076904296875C79.34988403320312,58.44036865234375,79.34988403320312,56.958953857421875,78.43948364257812,56.048309326171875Z" style="fill: rgb(255, 140, 120);"/></g></g><g id="shape-5f97f291-8dcf-809d-8008-864398e5760a"><g class="fills" id="fills-5f97f291-8dcf-809d-8008-864398e5760a"><rect rx="0" ry="0" x="68.07864279960052" y="56.6981017261424" transform="matrix(0.707108, 0.707106, 0.707108, -0.707106, -19.913932, 48.076248)" width="9.43996153204938" height="3.2369653780621093" style="fill: rgb(246, 246, 247);"/></g></g><g id="shape-5f97f291-8dcf-809d-8008-864398e5760b"><g class="fills" id="fills-5f97f291-8dcf-809d-8008-864398e5760b"><rect rx="0" ry="0" x="74.51011966214037" y="59.36274741543582" transform="matrix(0.707108, 0.707106, 0.707108, -0.707106, -21.017908, 50.741473)" width="1.9048858757195148" height="3.2370591270594673" style="fill: rgb(236, 237, 239);"/></g></g><g id="shape-5f97f291-8dcf-809d-8008-864398e5760c"><g class="fills" id="fills-5f97f291-8dcf-809d-8008-864398e5760c"><path d="M75.9337158203125,59.162811279296875L77.2806396484375,60.509735107421875L78.43948364257812,59.35089111328125C79.24578857421875,58.5445556640625,79.33648681640625,57.291046142578125,78.71466064453125,56.38214111328125L75.9337158203125,59.162811279296875Z" style="fill: rgb(223, 122, 110);"/></g></g><g id="shape-5f97f291-8dcf-809d-8008-864398e5760d"><g class="fills" id="fills-5f97f291-8dcf-809d-8008-864398e5760d"><path d="M71.20205688476562,77.90078735351562C71.34765625,78.04629516601562,71.5384521484375,78.11904907226562,71.72909545898438,78.11904907226562C71.91983032226562,78.11904907226562,72.11062622070312,78.04629516601562,72.25619506835938,77.90078735351562C76.25125122070312,73.90576171875,77.31875610351562,67.89984130859375,74.99163818359375,62.79864501953125L68.31646728515625,56.123382568359375C68.25360107421875,56.094757080078125,68.19015502929688,56.069000244140625,68.12716674804688,56.041412353515625C69.48373413085938,57.826507568359375,70.98251342773438,60.390472412109375,72.02529907226562,63.866485595703125C73.28256225585938,68.05746459960938,73.01046752929688,73.39791870117188,71.11639404296875,77.81509399414062L71.20205688476562,77.90078735351562Z" style="fill: rgb(223, 122, 110);"/></g></g><g id="shape-5f97f291-8dcf-809d-8008-864398e5a6f0"><g class="fills" id="fills-5f97f291-8dcf-809d-8008-864398e5a6f0"><ellipse cx="63.67825000000013" cy="60.28877308843042" rx="2.782406249999923" ry="2.7824000972543956" transform="matrix(-1.000000, 0.000000, 0.000000, 1.000000, 127.356500, -0.000000)" style="fill: rgb(255, 197, 187);"/></g></g></g></g></svg>